<svg width="512" height="512" viewBox="0 0 512 512" fill="none" xmlns="http://www.w3.org/2000/svg">
<path d="M215.59 149.173C229.579 137.611 253.734 131.871 272.111 139.273C331.439 163.167 298.995 243.575 239.538 235.592C199.462 230.213 201.67 156.325 232.834 143.772" stroke="black" stroke-width="16" stroke-linecap="round" stroke-linejoin="round"/>
<path d="M211.845 423.08C212.854 422.469 213.994 422.465 215.106 422.321C218.286 421.907 218.525 421.693 219.139 418.539C221.31 407.418 221.765 381.225 222.525 369.918C223.384 357.155 228.981 320.241 229.139 318.983C229.187 318.598 229.036 318.146 229.179 317.822C231.127 313.383 229.858 308.876 229.275 304.463C228.266 296.804 218.924 235.797 219.139 234.377C219.733 230.465 215.848 219.455 215.106 215.748C213.403 207.238 212.088 205.645 209.804 197.283C205.011 179.722 200.847 161.988 196.434 144.323C194.001 134.592 191.035 125.025 188.187 115.422C187.774 114.033 187.346 112.662 186.126 111.688C185.378 111.09 185.06 110.085 185 109.08" stroke="black" stroke-width="16" stroke-linecap="round" stroke-linejoin="round"/>
<path d="M327.421 110.302C328.282 111.581 328.216 112.821 326.995 113.23C326.108 113.529 320.707 143.667 313.406 172.289C305.986 201.378 296.666 228.966 295.876 230.345C293.057 235.265 291.771 240.889 290.393 246.605C288.239 255.551 280.73 285.595 279.827 293.291C279.231 298.372 276.405 309.27 275.571 314.305C275.039 317.513 274.104 332.597 274.25 337.057C274.33 339.487 276.067 406.391 275.626 412.7C275.452 415.187 275.722 417.727 275.816 420.241C275.875 421.8 276.35 422.732 277.782 422.674C278.914 422.628 280.057 423.071 281.197 423.08" stroke="black" stroke-width="16" stroke-linecap="round" stroke-linejoin="round"/>
<path d="M130.938 92.6316C200.6 92.6316 270.262 92.6316 339.925 92.6316C363.043 92.6316 385.877 89.627 408.864 89.627" stroke="black" stroke-width="10" stroke-linecap="round"/>
<path d="M122.536 46C122.536 56.5625 123.369 67.0766 124.387 77.5906C125.457 88.6433 125.593 99.8237 126.429 110.904C126.862 116.645 125.987 123.871 128.152 129.284C129.279 132.101 129.429 137.171 129.429 140.198" stroke="black" stroke-width="10" stroke-linecap="round"/>
<path d="M88.6475 50.5952H117.366" stroke="black" stroke-width="10" stroke-linecap="round"/>
<path d="M77.1602 57.4878H115.069" stroke="black" stroke-width="10" stroke-linecap="round"/>
<path d="M122.536 64.38C113.92 64.38 105.305 64.38 96.6891 64.38C94.6164 64.38 84.4085 65.6657 83.4785 63.8057" stroke="black" stroke-width="10" stroke-linecap="round"/>
<path d="M123.685 72.9956C110.249 72.9956 96.9017 73.57 83.4785 73.57" stroke="black" stroke-width="10" stroke-linecap="round"/>
<path d="M123.684 80.4626C112.759 80.4626 101.845 79.7823 91.2639 81.8985C85.0773 83.1358 77.6988 82.1857 71.416 82.1857" stroke="black" stroke-width="10" stroke-linecap="round"/>
<path d="M125.982 87.355C111.068 87.355 96.0009 87.9294 81.1807 87.9294" stroke="black" stroke-width="10" stroke-linecap="round"/>
<path d="M124.833 94.2476C113.75 94.2476 102.667 94.2476 91.5835 94.2476C87.6403 94.2476 83.9381 95.3963 80.0322 95.3963" stroke="black" stroke-width="10" stroke-linecap="round"/>
<path d="M122.536 101.14C113.771 101.14 105.007 101.14 96.2423 101.14C93.1485 101.14 90.4906 102.289 87.499 102.289" stroke="black" stroke-width="10" stroke-linecap="round"/>
<path d="M85.7754 110.904H121.961" stroke="black" stroke-width="10" stroke-linecap="round"/>
<path d="M127.131 118.371C114.066 118.371 101.048 118.945 88.0732 118.945" stroke="black" stroke-width="10" stroke-linecap="round"/>
<path d="M91.5195 124.689H125.408" stroke="black" stroke-width="10" stroke-linecap="round"/>
<path d="M127.131 135.028C120.472 135.028 113.814 135.028 107.155 135.028C102.39 135.028 97.7066 136.177 92.9873 136.177C88.9814 136.177 85.1992 136.751 81.1807 136.751" stroke="black" stroke-width="10" stroke-linecap="round"/>
<path d="M124.259 132.156C111.193 132.156 98.1774 131.582 85.2012 131.582" stroke="black" stroke-width="10" stroke-linecap="round"/>
</svg>
