<svg width="512" height="512" viewBox="0 0 512 512" fill="none" xmlns="http://www.w3.org/2000/svg">
<path d="M220.685 138.688C234.329 120.979 251.691 107.944 275.488 113.162C342.551 127.862 329.651 231.626 263.311 236.299C209.595 240.086 189.498 148.519 232.862 135.685" stroke="black" stroke-width="16" stroke-linecap="round" stroke-linejoin="round"/>
<path d="M210.383 265.91C214.214 292.859 217.876 316.069 221.369 335.538C224.862 355.007 227.651 376.033 229.736 398.618" stroke="black" stroke-width="16" stroke-linecap="round" stroke-linejoin="round"/>
<path d="M300.235 272.822C297.811 286.515 291.568 315.88 286.87 342.947C281.675 372.88 278.117 400 278.117 400" stroke="black" stroke-width="16" stroke-linecap="round" stroke-linejoin="round"/>
<path d="M300.235 266.218C286.059 266.218 234.928 259.526 220.844 261.311C216.186 261.893 211.521 262.485 206.864 263.067C204.861 263.321 202.844 263.678 200.83 263.816C193.124 264.354 130.168 281.283 127.335 281.115C126.664 281.072 126.007 281.031 125.34 280.977C124.035 280.871 121.858 280.809 120.845 280.428C118.713 279.603 116.792 278.959 115.112 277.312C114.413 276.63 116.931 258.275 124.174 228.505C130.869 200.991 141.05 176.92 143.104 175.195C145.132 173.504 159.116 162.232 159.985 162.232C161.467 162.232 162.937 162.543 164.433 162.765C166.662 163.103 172.396 167.668 173.378 168.885C175.425 171.441 173.985 174.799 170.324 180.188C166.662 185.577 158.428 185.577 155.487 188.006" stroke="black" stroke-width="16" stroke-linecap="round" stroke-linejoin="round"/>
<path d="M300.236 266.219C315.263 266.219 392.817 295.868 394.173 297.885C395.593 300.006 397 301.918 397 304.358C397 308.658 393.853 312.598 390.122 315.782C384.918 320.217 379.012 324.174 373.383 328.315C370.063 330.752 366.732 333.2 363.412 335.637C358.181 339.48 308.811 371.848 303.102 375.25C299.095 377.641 294.989 379.988 291.309 382.643C291.234 383.191 291.088 383.742 290.877 384.285C290.398 385.489 284.562 398.928 283.647 400" stroke="black" stroke-width="16" stroke-linecap="round" stroke-linejoin="round"/>
<path d="M112.341 135.864C102.839 134 93.715 125.368 91.5709 115.72C89.863 108.035 92.2546 91.9381 101.464 89.8917C109.378 88.1329 115.978 87.5554 123.442 92.3537C130.695 97.0161 134.358 105.156 136.558 112.855C137.498 116.145 138.68 124.342 137.14 127.806C135.066 132.472 134.111 136.906 138.483 140.653C144.134 145.497 148.8 152.229 153.434 158.021C160.975 167.448 169.027 176.434 177.606 185.014C180.526 187.934 183.496 191.032 186.021 194.28C188.013 196.84 188.928 197.1 185.663 197.1C182.516 197.1 178.054 193.43 175.591 191.46C170.042 187.02 165.431 182.86 160.506 177.583C157.24 174.083 154.736 169.233 151.016 166.303C148.321 164.179 144.603 161.878 142.914 158.782C140.394 154.162 134.744 149.851 131.052 146.159C129.037 144.144 125.343 139.782 122.413 139.131C119.198 138.417 108.152 137.154 106.701 134.252" stroke="black" stroke-width="5" stroke-linecap="round"/>
<path d="M108.312 99.6055C119.141 101.594 122.816 109.896 122.816 120.107C122.816 122.218 123.656 126.167 121.831 127.627C120.175 128.952 114.801 127.552 113.147 127.001" stroke="black" stroke-width="5" stroke-linecap="round"/>
</svg>
