<svg width="512" height="512" viewBox="0 0 512 512" fill="none" xmlns="http://www.w3.org/2000/svg">
<path d="M228.787 158.432C242.97 147.558 267.461 142.159 286.093 149.121C346.245 171.594 313.35 247.218 253.068 239.71C212.435 234.651 214.673 165.158 246.271 153.352" stroke="black" stroke-width="16" stroke-linecap="round" stroke-linejoin="round"/>
<path d="M196.37 359.885C191.477 337.905 195.925 316.143 200.17 294.372C202.153 284.243 204.008 274.113 206.156 262.667" stroke="black" stroke-width="16" stroke-linecap="round" stroke-linejoin="round"/>
<path d="M303.065 282.11C290.315 300.918 274.56 343.738 267.283 365.867" stroke="black" stroke-width="16" stroke-linecap="round" stroke-linejoin="round"/>
<path d="M68.9922 211.814C75.6861 213.699 74.8193 223.308 78.5208 229.132C87.2697 242.899 109.2 277.332 112.445 281.475C122.84 294.756 125.501 301.167 139.232 291.272C150.12 283.419 192.489 262.355 204.302 261.118C209.169 260.608 282.771 275.723 302.81 279.902C319.545 283.39 334.717 346.547 342.94 341.668C358.056 332.699 395.403 311.266 410.78 302.392C415.773 299.511 416.029 294.405 429.792 290.389" stroke="black" stroke-width="16" stroke-linecap="round" stroke-linejoin="round"/>
<path d="M431.197 260.685C428.269 263.145 424.906 265.304 422.557 268.325C421.191 270.082 424.653 272.269 425.425 273.325C427.49 276.151 431.228 277.639 433.763 280.041C437.199 283.295 440.541 286.828 443.762 290.228C445.87 292.453 448.326 295.806 451.044 297.359C451.618 297.687 452.602 298.879 453.195 299.472C454.155 300.433 455.492 301.58 456.326 302.623C458.774 305.683 461.644 305.822 465.306 304.49C466.994 303.877 468.265 303.01 469.57 301.774C470.688 300.715 472.343 300.09 473.305 298.887C475.226 296.487 477.634 294.999 479.833 293.02C480.323 292.579 482.128 291.514 480.946 290.568C480.097 289.889 479.628 288.061 478.739 287.172C477.323 285.756 475.793 284.678 474.588 283.172C472.598 280.685 470.982 283.326 468.891 283.436C466.889 283.542 464.842 283.776 462.778 283.776C461.57 283.776 459.484 284.197 458.534 283.436C457.609 282.697 459.117 280.572 457.685 279.777C456.481 279.108 452.859 280.192 451.572 280.55C449.916 281.01 447.574 280.068 447.497 278.079C447.479 277.607 447.743 276.668 447.082 276.645C445.143 276.576 443.126 276.857 441.215 276.437C439.43 276.046 437.649 274.701 437.649 272.74C437.649 271.953 437.411 270.475 438.593 270.344C439.156 270.281 437.449 270.576 436.895 270.457C435.624 270.185 434.725 268.997 434.084 267.929C433.289 266.604 433.4 264.357 433.744 262.911C433.979 261.926 435.225 261.476 434.178 261.1C432.556 260.516 432.895 259.105 432.895 257.628" stroke="black" stroke-width="3" stroke-linecap="round"/>
<path d="M432.894 257.629C431.738 254.521 432.14 250.548 435.611 249.309C436.866 248.861 439.286 248.844 440.176 249.988C441.312 251.448 441.175 248.751 441.761 247.611C442.525 246.125 443.562 244.189 444.93 243.178C446.697 241.872 449.802 241.812 451.873 241.706C456.299 241.479 460.672 241.29 461.57 246.29C461.911 248.192 461.254 250.513 461.777 252.346C461.829 252.529 469.45 251.486 470.267 251.592C474.342 252.118 476.268 256.781 475.606 260.534C475.235 262.637 473.91 261.906 476.474 261.628C478.409 261.418 479.753 261.131 480.737 263.1C481.389 264.404 481.625 265.998 481.19 267.401C480.888 268.373 481.311 268.105 482.133 268.722C483.277 269.579 484.306 271.119 484.699 272.495C485.463 275.169 483.831 275.098 482.548 276.381C481.345 277.584 483.473 279.978 481.039 281.06C479.076 281.932 476.438 282.052 474.398 281.324C474.131 281.228 473.632 280.461 473.455 280.588C472.958 280.943 472.526 281.167 471.946 281.399" stroke="black" stroke-width="3" stroke-linecap="round"/>
<path d="M455.308 286.493C457.891 288.45 460.197 289.999 462.929 291.737C464.224 292.561 465.995 293.284 467.532 293.284C469.436 293.284 470.552 292.504 472.287 291.926" stroke="black" stroke-width="3" stroke-linecap="round"/>
<path d="M466.172 294.45C465.89 295.734 465.347 296.315 464.655 297.353C464.262 297.944 463.616 298.384 463.307 299.001" stroke="black" stroke-width="2" stroke-linecap="round"/>
<path d="M459.936 302.878C461.181 301.597 462.115 300.025 463.307 298.833" stroke="black" stroke-width="2" stroke-linecap="round"/>
<path d="M491.625 279.786C490.992 279.77 490.138 279.539 490.108 278.737C490.082 278.067 489.936 277.134 490.37 276.583C491.431 275.233 493.313 274.731 494.565 275.984C495.049 276.468 495.509 278.462 494.958 279.074C494.177 279.942 493.25 280.123 492.13 280.123" stroke="black" stroke-width="2" stroke-linecap="round"/>
<path d="M486.736 256.356C485.327 256.356 484.267 256.376 483.121 255.476C482.311 254.839 481.312 254.223 480.761 253.322C480.053 252.163 480.52 250.646 481.417 249.792C482.304 248.946 483.588 247.617 484.881 247.432C485.544 247.337 487.69 246.807 488.084 247.694C488.541 248.722 489.489 249.4 489.732 250.588C489.848 251.154 489.995 252.796 489.732 253.322C489.444 253.898 488.842 254.534 488.421 255.008C488.034 255.443 487.258 255.968 487.073 256.525" stroke="black" stroke-width="2" stroke-linecap="round"/>
<path d="M485.797 262.767C485.797 264.526 487.062 264.034 488.586 264.034V261.372C488.586 260.494 487.011 260.738 486.431 260.738C485.507 260.738 485.797 262.153 485.797 262.767Z" stroke="black" stroke-linecap="round"/>
<path d="M440.021 237.548C437.897 237.103 433.969 236.627 433.969 233.614C433.969 232.879 433.597 230.69 434.305 230.286C436.843 228.835 438.654 228.47 441.533 228.47C443.837 228.47 443.046 232.394 443.046 233.917C443.046 236.906 441.739 237.548 438.81 237.548" stroke="black" stroke-width="2" stroke-linecap="round"/>
<path d="M102.99 194.897C86.5175 200.439 46.7993 205.975 27.6096 208.979C27.6096 208.979 4.69589 213.7 24.9792 218.796C45.2626 223.891 65.8313 219.22 88.0112 212.266C110.191 205.312 118.526 202.793 121.213 194.01C123.899 185.226 102.99 194.897 102.99 194.897Z" fill="white" stroke="black" stroke-width="4"/>
<path d="M84.9948 187.901C72.5516 192.088 42.549 196.27 28.0534 198.539C28.0534 198.539 10.7447 202.105 26.0664 205.955C41.3882 209.804 56.9256 206.275 73.68 201.022L74.2679 200.838C90.5822 195.723 96.7546 193.788 98.7601 187.231C100.79 180.596 84.9948 187.901 84.9948 187.901Z" stroke="black" stroke-width="4"/>
<path d="M71.2772 182.634C62.5179 185.581 41.3976 188.525 31.1935 190.122C31.1935 190.122 19.009 192.633 29.7948 195.342C40.5805 198.052 51.518 195.568 63.3122 191.87L63.7261 191.74C75.2105 188.14 79.5555 186.778 80.9673 182.162C82.3959 177.491 71.2772 182.634 71.2772 182.634Z" stroke="black" stroke-width="4"/>
</svg>
