<svg width="512" height="512" viewBox="0 0 512 512" fill="none" xmlns="http://www.w3.org/2000/svg">
<path d="M208.199 321.504C206.108 303.922 215.998 274.99 218.985 257.482C222.961 234.167 229.418 246.339 199.676 241.954C198.699 241.807 184.303 240.275 183.307 240.206C174.986 239.627 171.736 239.352 172.544 245.909C173.12 250.612 172.945 255.237 172.857 259.915C172.469 280.617 170.747 299.459 168.925 320.111" stroke="black" stroke-width="16" stroke-linecap="round" stroke-linejoin="round"/>
<path d="M282.4 206.791C246.832 219.176 212.222 241.541 175.3 239.838" stroke="black" stroke-width="16" stroke-linecap="round" stroke-linejoin="round"/>
<path d="M222.475 243.754C231.601 242.707 264.528 233.609 272.21 232.714C285.837 231.131 299.554 231.332 313 227.185" stroke="black" stroke-width="16" stroke-linecap="round" stroke-linejoin="round"/>
<path d="M207.732 321.504C208.096 332.954 208.136 347.944 207.732 358.067C207.127 373.323 207.367 388.615 207.177 403.886C207.122 408.648 208.276 412.072 213.805 411.736C214.99 411.664 216.26 411.654 217.375 412" stroke="black" stroke-width="16" stroke-linecap="round" stroke-linejoin="round"/>
<path d="M169.31 324.054C166.916 349.738 165.074 384.095 165.1 408.464C165.104 413.421 169.516 410.038 171.475 412" stroke="black" stroke-width="16" stroke-linecap="round" stroke-linejoin="round"/>
<path d="M167.855 115.021C182.603 103.319 205.826 96.683 225.2 104.174C287.748 128.358 269.338 211.504 198.384 206.581C155.896 203.633 147.101 127.725 179.957 115.021" stroke="black" stroke-width="16" stroke-linecap="round" stroke-linejoin="round"/>
<path d="M294.907 199.381C304.982 205.138 319.001 208.974 328.04 216.506C329.066 217.361 337.097 221.781 336.416 222.462C334.872 224.006 327.283 220.591 325.899 219.484C321.797 216.202 290.066 205.712 293.231 199.381" stroke="black" stroke-width="5" stroke-linecap="round"/>
<path d="M293.231 199.381C334.239 199.381 379.072 208.393 417.201 189.329C446.769 174.545 476.292 159.57 487.934 126.972C490.741 119.113 495.938 108.031 495.938 99.703C495.938 96.7744 481.405 94.0831 478.161 93.0019C460.954 87.2659 442.259 85.5018 424.832 79.6929C419.117 77.7876 413.677 75.2424 408.08 73.6434C403.518 72.3399 407.149 76.0726 407.149 80.4375C407.149 87.366 408.824 93.5362 408.824 100.541C408.824 119.618 406.589 138.517 397.935 155.824C389.388 172.918 377.807 188.342 366.943 204.034C363.773 208.613 340.139 227.196 340.139 219.484" stroke="black" stroke-width="5" stroke-linecap="round"/>
<path d="M333.438 224.51C336.614 223.192 345.307 220.874 346.84 217.809" stroke="black" stroke-width="5" stroke-linecap="round"/>
<path d="M305.635 207.782C307.332 207.782 309.396 207.425 310.974 208.126C312.244 208.69 313.536 209.341 314.763 210.001C316.16 210.754 317.633 211.776 319.087 212.412C320.891 213.202 321.104 212.004 319.891 210.843C317.702 208.749 315.926 206.685 313.289 205.103C311.731 204.168 310.004 203.953 308.39 203.227C307.487 202.821 306.025 202.887 307.969 202.959C309.095 203.001 310.219 203.55 311.376 203.648C313.39 203.82 315.411 203.896 317.422 204.069C320.903 204.369 324.355 204.337 327.852 204.337C329.433 204.337 330.93 204.086 332.502 203.974C334.249 203.849 336.33 203.902 338.032 203.476C342.624 202.328 347.646 203.867 352.154 204.318C353.385 204.441 358.797 205.654 359.713 204.509C360.013 204.134 359.154 205.368 358.603 205.715C357.162 206.622 355.411 206.991 353.934 207.858C352.038 208.971 350.158 210.551 348.002 211.149C346.94 211.444 345.027 211.835 344.213 212.604C343.107 213.649 341.319 214.412 340.424 215.532C340.126 215.904 338.705 216.286 338.338 215.857C337.005 214.301 335.188 214.067 333.363 213.293C331.18 212.367 329.102 211.868 327.067 210.537C325.854 209.744 326.79 209.848 327.756 209.848C331.047 209.848 334.364 209.48 337.63 209.083C339.151 208.898 340.621 208.815 342.146 208.815C343.295 208.815 343.477 209.194 344.481 209.58C346.125 210.213 346.343 212.855 347.657 213.293" stroke="black" stroke-width="8" stroke-linecap="round"/>
<path d="M374.18 198.137C382.685 197.822 389.941 193.584 397.181 189.602C400.767 187.63 404.195 185.492 407.514 183.096C410.533 180.917 413.836 179.035 416.681 176.628C418.075 175.448 419.389 174.138 420.929 173.145C435.207 163.944 450.309 155.556 461.325 142.336" stroke="black" stroke-width="8" stroke-linecap="round"/>
<path d="M377.054 194.312C381.613 191.697 385.912 188.624 390.33 185.78C391.692 184.903 393.158 184.106 394.472 183.16C394.764 182.949 394.879 182.635 395.215 182.522" stroke="black" stroke-width="8" stroke-linecap="round"/>
<path d="M382.354 190.466C388.248 174.713 399.325 162.102 408.362 148.159C413.308 140.529 415.005 129.676 415.005 120.747C415.005 116.184 415.53 111.629 415.464 107.027C415.397 102.32 414.422 97.7903 413.625 93.2061C413.256 91.0853 411.899 88.5828 411.786 86.5382C411.745 85.8106 411.179 83.0214 410.764 82.5016C410.326 81.9542 410.522 81.4123 410.176 80.7899C409.916 80.3212 408.848 79.16 409.307 79.4359C411.194 80.5679 413.282 81.2066 415.107 82.3994C417.279 83.8198 420.218 84.2667 422.567 85.363C426.336 87.1221 430.467 88.4385 434.344 89.9616C439.006 91.7931 444.977 92.8272 449.954 93.5382C455.394 94.3155 460.816 95.1886 466.253 95.9653C473.328 96.976 480.432 98.438 487.305 100.334C487.691 100.441 493.426 101.977 492.031 103.093C489.922 104.781 488.57 106.566 487.151 109.02C483.911 114.626 480.185 120.161 476.14 125.217C471.445 131.087 467.364 137.329 462.83 143.305C458.467 149.056 454.794 155.718 449.545 160.78C444.444 165.699 437.758 169.367 431.84 173.196C427.789 175.818 422.631 177.975 419.143 181.269C416.09 184.153 411.681 185.544 408.566 188.167C406.915 189.558 404.408 190.215 402.333 190.492C400.201 190.776 396.623 193.09 395.486 190.492C394.754 188.818 394.654 186.984 393.953 185.408C393.372 184.101 392.385 182.82 392.471 181.269C392.532 180.184 394.892 178.768 395.537 177.922C399.085 173.274 402.696 168.876 406.753 164.663C410.319 160.959 413.366 156.761 417.636 153.831C421.623 151.095 425.958 148.635 429.72 145.605C438.743 138.336 445.54 129.539 453.224 121.002C454.981 119.05 457.312 117.764 457.312 114.947C457.312 111.223 455.878 105.427 452.611 103.093C444.879 97.5703 433.626 100.85 425.326 97.1149C422.345 95.7736 419.536 94.7971 417.304 92.2864C417.027 91.9751 413.284 87.5098 415.234 87.9433C416.795 88.29 418.591 90.4079 419.91 91.2389C423.47 93.4837 427.406 95.5579 431.355 97.0127C437.99 99.4573 445.139 99.5883 451.998 101.024C460.463 102.796 468.942 102.633 477.545 102.633C479.647 102.633 481.841 102.925 483.728 103.783C486.325 104.963 484.708 105.685 484.546 107.998C484.334 111.012 484.443 114.069 484.443 117.093C484.443 120.621 487.202 116.58 487.202 114.82C487.202 114.06 487.711 113.535 487.662 112.75C487.65 112.56 485.448 117.116 485.159 117.911C483.488 122.493 482.316 127.945 479.155 131.809C475.912 135.773 471.467 139.417 469.166 144.021C468.378 145.596 466.912 146.557 465.845 147.929C464.345 149.857 462.685 152.15 460.99 153.933C458.24 156.828 455.291 159.838 452.687 162.875C450.075 165.923 447.289 168.748 443.771 170.667C440.096 172.672 437.498 176.131 433.859 178.152C431.29 179.58 427.8 182.437 424.892 183.083C420.634 184.029 426.501 173.572 426.501 177.131" stroke="black" stroke-width="8" stroke-linecap="round"/>
<path d="M393.391 186.328C399.236 181.261 404.528 175.563 409.92 170.028C418.362 161.362 427.055 152.992 435.8 144.634C444.891 135.944 455.786 127.607 462.829 117.042C466.434 111.635 469.474 105.918 473.304 100.64C474.185 99.4267 474.786 98.5649 474.786 100.334" stroke="black" stroke-width="8" stroke-linecap="round"/>
<path d="M477.545 104.932C471.432 117.025 463.586 128.168 455.472 138.987C451.061 144.869 446.625 150.567 441.42 155.772C434.311 162.882 426.24 168.662 418.223 174.729C417.621 175.184 414.238 178.609 413.445 178.433C412.875 178.306 413.15 175.702 413.164 175.291C413.358 169.872 418.297 164.728 421.544 160.831C426.855 154.458 432.308 148.329 438.176 142.462C442.856 137.782 447.621 133.239 451.716 128.027C455.624 123.054 460.14 119.167 464.669 114.845C467.304 112.33 471.74 108.611 475.475 108.611C476.261 108.611 479.792 108.191 479.844 109.071C479.953 110.915 479.964 112.394 478.822 113.874C475.442 118.255 470.133 121.809 464.822 123.327C456.838 125.608 449.365 129.005 441.676 132.064C439.617 132.883 436.821 134.047 434.548 133.801C430.487 133.362 431.016 127.76 431.15 124.911C431.324 121.207 432.098 118.031 434.957 115.407C440.399 110.411 449.332 105.253 456.928 105.137C461.652 105.065 461.926 112.121 462.139 115.407C462.404 119.485 462.793 124.222 460.428 127.823C457.211 132.72 451.32 134.006 445.917 134.363C437.765 134.903 429.392 134.457 422.796 128.947C417.973 124.919 414.278 118.837 414.11 112.52C414.012 108.842 414.185 106.738 416.894 104.064C419.828 101.168 426.705 100.569 430.588 101.458C435.523 102.587 436.381 111.94 436.132 115.918C435.663 123.414 424.729 114.867 422.924 112.648C420.891 110.149 418.947 106.113 419.245 102.761C419.814 96.3532 428.168 96.7158 432.913 96.5015C439.624 96.1984 447.576 95.9896 452.508 101.356C455.592 104.71 456.061 109.267 455.829 113.619C455.599 117.932 454.468 122.599 450.873 125.422C446.068 129.193 440.39 127.625 436.668 123.327C431.094 116.888 429.952 102.735 441.599 102.735C449.95 102.735 455.619 116.752 451.384 123.327C449.501 126.249 446.573 127.115 443.234 126.903C437.579 126.544 433.925 122.353 432.351 117.221C430.95 112.652 432.916 106.656 437.409 104.524C440.799 102.915 445.951 102.016 447.782 106.235C450.971 113.585 445.261 124.713 437.077 125.524C434.184 125.81 430.982 125.087 429.541 122.356C429.347 121.989 428.266 116.835 429.081 117.016C431.749 117.609 434.025 128.246 431.508 129.765C427.707 132.058 424.816 128.089 423.077 125.064C419.986 119.687 417.949 113.044 418.785 106.772C419 105.162 420.037 103.46 421.902 103.629C425.086 103.919 426.272 109.422 426.654 111.779C427.048 114.216 427.425 117.513 426.756 119.954C425.307 125.238 424.877 118.705 425.172 116.582C425.732 112.551 428.267 109.176 430.307 105.775C430.766 105.01 431.697 102.955 432.734 102.659C436.42 101.605 441.801 105.227 444.179 107.64C446.602 110.098 449.164 115.032 447.169 118.524C446.514 119.67 445.111 124.063 443.055 122.765C440.036 120.858 441.216 112.016 441.216 109.173C441.216 107.732 441.216 108.839 441.216 109.531C441.216 111.583 441.216 113.636 441.216 115.688C441.216 119.955 442.029 124.321 439.734 128.027C435.314 135.167 428.387 141.056 422.924 147.367C418.959 151.947 414.143 156.512 411.121 161.802C409.926 163.892 408.614 168.54 406.164 169.67C404.122 170.613 401.189 172.55 399.599 174.141C397.607 176.132 402.27 175.751 403.303 175.751C406.012 175.751 408.587 174.831 411.325 174.831C414.048 174.831 416.783 174.318 419.168 172.915C422.584 170.906 424.644 166.451 426.5 163.13C429.16 158.373 431.671 153.862 434.931 149.488C437.544 145.982 440.216 142.298 442.366 138.477C443.757 136.003 445.135 134.772 447.398 133.137C448.55 132.305 449.638 131.847 451.052 131.63C452.08 131.472 451.528 132.176 451.844 132.728C452.6 134.051 466.301 124.235 468.245 122.867C468.926 122.388 471.567 119.795 471.567 121.283C471.567 123.945 468.874 126.962 467.53 129.1C465.059 133.031 462.19 136.565 458.026 138.706C455.557 139.976 453.421 141.708 450.873 142.845C447.64 144.288 444.238 145.341 441.088 146.958C437.312 148.897 435.324 151.287 434.114 155.364C433.385 157.817 431.099 161.457 431.099 163.973C431.099 166.646 432.03 158.701 432.76 156.13C434.905 148.573 439.471 141.94 443.592 135.334C445.619 132.084 447.636 128.748 450.311 125.984C450.662 125.621 451.235 124.739 451.793 124.706C453.426 124.61 452.712 127.937 452.712 129.075C452.712 131.837 451.295 137.601 448.574 138.962" stroke="black" stroke-width="8" stroke-linecap="round"/>
<path d="M463.053 93.4529C456.996 93.4529 450.184 94.2293 444.455 91.7739C441.219 90.3871 437.545 88.7423 434.085 88.0654C433.27 87.9058 429.713 87.4825 429.916 87.4749C431.608 87.4123 433.097 87.984 434.694 88.4713C437.996 89.4785 441.37 89.9097 444.731 90.63C447.33 91.1867 449.458 91.4603 452.093 91.4603" stroke="black" stroke-width="8" stroke-linecap="round"/>
<path d="M428.846 127.328C426.122 131.489 422.483 135.182 420.248 139.653C417.866 144.418 417.189 149.1 413.144 152.938C411.569 154.432 409.765 155.558 407.591 155.558" stroke="black" stroke-width="8" stroke-linecap="round"/>
<path d="M402.276 163.196C402.276 159.073 402.388 155.949 403.937 152.163C404.794 150.068 405.872 148.218 406.852 146.258C408.221 143.52 409.133 140.276 410.081 137.328C411.224 133.771 413.136 129.723 413.55 126C413.697 124.678 413.422 123.315 413.587 121.996C413.796 120.32 414.003 118.653 414.159 116.959C414.306 115.358 413.983 112.757 414.897 111.387" stroke="black" stroke-width="8" stroke-linecap="round"/>
<path d="M418.882 123.675C419.595 128.308 419.214 133.164 419.214 137.845C419.214 138.131 419.012 142.3 419.878 141.867C422.707 140.453 424.692 136.236 426.447 133.86C427.523 132.402 429.309 129.609 431.17 128.989" stroke="black" stroke-width="8" stroke-linecap="round"/>
<path d="M452.758 165.521C456.771 164.026 459.211 160.728 462.131 157.808C465.202 154.738 467.966 151.396 471.024 148.251C472.966 146.253 474.074 143.683 475.932 141.683C477.863 139.603 480.51 136.833 480.987 133.97" stroke="black" stroke-width="8" stroke-linecap="round"/>
<path d="M489.621 109.062C489.621 110.278 489.582 111.267 489.953 112.383" stroke="black" stroke-width="8" stroke-linecap="round"/>
<path d="M290.916 201.742C292.712 203.195 294.966 204.51 296.548 206.198C297.228 206.923 298.407 207.973 299.278 208.477C300.577 209.23 301.765 210.15 303.081 210.887C304.46 211.66 306.088 212.289 307.32 213.297C308.635 214.373 311.015 215.276 312.662 215.91C314.434 216.592 316.575 217.734 318.033 219.045C319.057 219.968 320.708 220.525 321.952 221.339C323.389 222.279 324.975 223.533 326.452 224.271C328.06 225.075 332.348 228.623 333.769 225.781" stroke="black" stroke-width="2" stroke-linecap="round"/>
<path d="M330.957 226.236C330.716 225.351 329.587 224.351 328.764 223.887C328.135 223.534 327.559 223.079 326.959 222.683C326.482 222.368 326.025 221.988 325.56 221.689C325.296 221.519 325.206 221.171 324.91 221.039C324.671 220.933 324.408 220.689 324.183 220.539C323.823 220.3 323.448 220.083 323.061 219.89C322.673 219.696 322.358 219.272 321.962 219.14" stroke="black" stroke-width="2" stroke-linecap="round"/>
<path d="M290.179 201.85C289.199 201.056 288.128 200.287 287.503 199.151C287.245 198.682 286.915 198.17 286.559 197.774C286.418 197.618 287.645 197.652 287.875 197.652C288.924 197.652 289.974 197.652 291.023 197.652C291.42 197.652 291.775 197.666 292.139 197.747C292.56 197.84 293.744 197.586 293.977 198.052" stroke="black" stroke-linecap="square"/>
<path d="M291.179 200.95C290.377 200.549 289.46 200.019 288.936 199.257C288.739 198.97 288.492 198.294 288.181 198.13C287.869 197.964 288.227 198.222 288.392 198.252C289.042 198.37 289.644 198.552 290.313 198.552C290.549 198.552 291.368 198.429 291.479 198.652" stroke="black" stroke-linecap="square"/>
<path d="M286.193 197.382C287.633 197.382 289.062 197.331 290.5 197.379C291.175 197.402 291.84 197.364 292.509 197.475C292.958 197.55 293.404 197.584 293.856 197.634" stroke="black" stroke-linecap="square"/>
<path d="M285.905 197.734C286.861 198.303 287.706 199.111 288.758 199.501C289.561 199.798 290.427 200.463 291.085 200.992C291.658 201.452 292.311 201.778 292.904 202.207C293.011 202.284 293.83 202.854 293.585 202.854" stroke="black" stroke-linecap="square"/>
<path d="M293.041 202.699C292.38 202.361 291.911 201.946 291.317 201.535C291.097 201.382 290.732 201.133 290.477 201.069C289.394 200.799 288.793 199.867 288.249 198.992C288.04 198.656 287.884 198.46 287.534 198.294C287.42 198.24 287.072 198.122 287.197 198.122C287.653 198.122 288.092 198.35 288.508 198.51C289.348 198.831 290.325 199.256 291.059 199.794C291.223 199.914 291.391 200.022 291.567 200.121C291.649 200.167 291.229 200.054 291.162 200.027C290.627 199.806 289.974 199.422 289.533 199.07C289.257 198.849 288.425 198.82 288.085 198.82C287.466 198.82 287.005 198.787 286.525 198.354C286.051 197.928 285.564 197.745 285.163 197.23C285.136 197.194 284.874 197.036 285.051 197.036C285.143 197.036 285.356 197.115 285.439 197.156C285.851 197.362 286.228 197.453 286.603 197.734" stroke="black" stroke-linecap="square"/>
</svg>
